<?xml version="1.0" standalone="no"?>
<!DOCTYPE svg PUBLIC "-//W3C//DTD SVG 20010904//EN"
 "http://www.w3.org/TR/2001/REC-SVG-20010904/DTD/svg10.dtd">
<svg version="1.0" xmlns="http://www.w3.org/2000/svg"
 width="250.000000pt" height="250.000000pt" viewBox="0 0 250.000000 250.000000"
 preserveAspectRatio="xMidYMid meet">
<metadata>
Created by potrace 1.14, written by Peter Selinger 2001-2017
</metadata>
<g transform="translate(0.000000,250.000000) scale(0.100000,-0.100000)"
fill="#000000" stroke="none">
<path d="M0 1250 l0 -1250 1250 0 1250 0 0 1250 0 1250 -1250 0 -1250 0 0
-1250z m875 573 c4 -10 52 -148 107 -308 55 -159 124 -360 153 -445 29 -85 63
-182 74 -214 12 -33 21 -63 21 -68 0 -4 -55 -8 -123 -8 l-122 0 -40 120 -40
120 -169 -2 -169 -3 -40 -117 -39 -118 -125 0 c-115 0 -125 1 -118 18 4 9 53
152 110 317 57 165 136 396 176 513 l74 212 131 0 c116 0 133 -2 139 -17z
m1153 -2 c88 -45 143 -140 143 -247 0 -85 -30 -153 -93 -208 l-49 -43 41 -18
c60 -27 116 -93 136 -161 34 -120 -1 -232 -93 -293 -91 -60 -117 -64 -460 -69
l-313 -4 0 525 c0 288 3 527 7 530 3 4 150 7 325 7 293 0 322 -2 356 -19z"/>
<path d="M672 1394 c-34 -109 -61 -199 -59 -200 5 -5 247 -9 247 -4 0 11 -114
386 -120 393 -4 4 -34 -81 -68 -189z"/>
<path d="M1590 1635 c-1 -3 -1 -53 -1 -112 l-1 -108 127 -3 c173 -4 215 19
215 113 0 95 -37 115 -215 115 -69 0 -125 -2 -125 -5z"/>
<path d="M1588 1128 c-2 -51 -2 -104 0 -118 l3 -25 132 2 c73 1 143 3 156 3
13 0 38 15 57 34 28 28 34 42 34 75 0 48 -21 96 -49 111 -11 5 -87 10 -175 10
l-155 0 -3 -92z"/>
</g>
</svg>
